<?xml version="1.0" encoding="utf-8"?>
<svg width="300" height="300" viewBox="0 0 300 300" fill="none" xmlns="http://www.w3.org/2000/svg">
  <g>
    <path d="M292.5 150C292.5 150 300 150 300 150C300 232.843 232.843 300 150 300C67.1573 300 0 232.843 0 150C0 67.1573 67.1573 0 150 0C232.843 0 300 67.1573 300 150C300 150 292.5 150 292.5 150C292.5 71.2994 228.701 7.49999 150 7.49999C71.2994 7.49999 7.49999 71.2994 7.49999 150C7.49999 228.701 71.2994 292.5 150 292.5C228.701 292.5 292.5 228.701 292.5 150Z" fill="#8E40D5" fill-rule="evenodd" />
    <path d="M228.977 45.7169C245.37 64.9685 255.794 88.5831 258.97 113.669L239.625 116.118C236.924 94.7957 228.065 74.7232 214.13 58.3594C200.196 41.9956 181.791 30.0507 161.171 23.9877L166.672 5.27965C190.931 12.4126 212.583 26.4654 228.977 45.7169ZM9.63379 80.8881C22.6591 48.965 47.8322 23.5237 79.6155 10.1609L87.1732 28.1368C60.1574 39.4952 38.7602 61.1203 27.6887 88.2549L9.63379 80.8881ZM235.241 206.318C219.147 228.51 196.45 245.047 170.393 253.565L164.334 235.03C186.482 227.79 205.775 213.734 219.454 194.87C233.134 176.007 240.5 153.302 240.5 130L260 130C260 157.414 251.334 184.126 235.241 206.318ZM16.0653 192.601C9.23761 180.175 4.4888 166.715 2.00698 152.755L21.2059 149.342C23.3155 161.208 27.352 172.648 33.1556 183.211L16.0653 192.601ZM83.3466 251.34C60.9715 242.737 41.4108 228.115 26.8266 209.09L42.3026 197.227C54.6992 213.398 71.3257 225.827 90.3446 233.139C109.363 240.452 130.034 242.363 150.071 238.662L153.613 257.838C130.04 262.192 105.722 259.943 83.3466 251.34Z" fill="#F0DF5A" fill-rule="evenodd" transform="translate(20 21)" />
    <path d="M100 185C100 185 100 200 100 200C80.2219 200 60.8879 194.135 44.443 183.147C27.998 172.159 15.1808 156.541 7.61204 138.268C0.0432739 119.996 -1.93704 99.8891 1.92147 80.491C5.77999 61.0929 15.3041 43.2746 29.2893 29.2893C43.2746 15.3041 61.0928 5.77998 80.4909 1.92146C99.889 -1.93706 119.996 0.0432854 138.268 7.61205C156.541 15.1808 172.159 27.9981 183.147 44.443C194.135 60.8879 200 80.2219 200 100C200 100 185 100 185 100C185 83.1886 180.015 66.7547 170.675 52.7766C161.335 38.7984 148.06 27.9037 132.528 21.4702C116.996 15.0368 99.9057 13.3535 83.4173 16.6332C66.9289 19.913 51.7834 28.0085 39.8959 39.8959C28.0085 51.7834 19.913 66.929 16.6333 83.4173C13.3535 99.9057 15.0368 116.996 21.4702 132.528C27.9037 148.06 38.7983 161.335 52.7765 170.675C66.7547 180.015 83.1886 185 100 185Z" fill="#2EE4EC" fill-rule="evenodd" transform="translate(50 51)" />
    <path d="M65.0002 117C65.0002 117 65.0002 130 65.0002 130C52.1443 130 39.5772 126.188 28.888 119.046C18.1988 111.903 9.86758 101.752 4.94786 89.8746C0.0281525 77.9973 -1.25906 64.928 1.24898 52.3192C3.75702 39.7104 9.94768 28.1285 19.0381 19.0381C28.1285 9.94766 39.7104 3.75697 52.3192 1.24893C64.928 -1.25911 77.9974 0.0281067 89.8746 4.94781C101.752 9.86751 111.903 18.1987 119.046 28.888C126.188 39.5772 130 52.1443 130 65.0001C130 65.0001 117 65.0001 117 65.0001C117 54.7154 113.95 44.6618 108.237 36.1104C102.523 27.559 94.4015 20.894 84.8997 16.9583C75.3979 13.0225 64.9424 11.9927 54.8554 13.9992C44.7684 16.0056 35.5029 20.9582 28.2305 28.2305C20.9582 35.5029 16.0056 44.7684 13.9992 54.8554C11.9928 64.9424 13.0226 75.3979 16.9583 84.8997C20.8941 94.4014 27.5591 102.523 36.1104 108.237C44.6618 113.95 54.7155 117 65.0002 117Z" fill="#2EE4EC" fill-rule="evenodd" transform="matrix(-1 0 -0 -1 215 216)" />
    <path d="M25 0L50 50L0 50L25 0Z" fill="#8E40D5" fill-rule="evenodd" transform="translate(125 126)" />
  </g>
</svg>