<?xml version="1.0" encoding="UTF-8"?>
<svg version="1.1" xmlns="http://www.w3.org/2000/svg" width="64" height="64">
<path d="M0 0 C21.12 0 42.24 0 64 0 C64 21.12 64 42.24 64 64 C42.88 64 21.76 64 0 64 C0 42.88 0 21.76 0 0 Z " fill="#3487DB" transform="translate(0,0)"/>
<path d="M0 0 C0.33 0 0.66 0 1 0 C1.02578125 0.90621094 1.0515625 1.81242187 1.078125 2.74609375 C1.4549434 10.8391254 1.85717837 18.26201245 7.38671875 24.5859375 C11.38716637 28.21888993 15.24905419 30.00405744 20.6484375 29.99609375 C25.85763949 29.66790006 29.70526276 29.18641795 34 26 C34.66 26 35.32 26 36 26 C36 25.34 36 24.68 36 24 C34.02 24 32.04 24 30 24 C29.98582031 23.23816406 29.97164062 22.47632812 29.95703125 21.69140625 C29.64879375 15.01848082 28.70174692 10.37720629 25.05859375 4.7421875 C24 3 24 3 24 1 C25.98 1 27.96 1 30 1 C30.66 2.65 31.32 4.3 32 6 C34.0245738 4.06745228 35.42105792 2.36841312 37 0 C40.125 -0.1875 40.125 -0.1875 43 0 C43 0.66 43 1.32 43 2 C43.99 2 44.98 2 46 2 C46 1.34 46 0.68 46 0 C48.475 0.495 48.475 0.495 51 1 C51.495 3.97 51.495 3.97 52 7 C51.34 7 50.68 7 50 7 C50 7.66 50 8.32 50 9 C51.98 9.33 53.96 9.66 56 10 C56 11.65 56 13.3 56 15 C54.68 15.33 53.36 15.66 52 16 C52.144375 16.70125 52.28875 17.4025 52.4375 18.125 C52.623125 19.07375 52.80875 20.0225 53 21 C53.226875 22.051875 53.45375 23.10375 53.6875 24.1875 C53.8421875 25.5796875 53.8421875 25.5796875 54 27 C52 29 52 29 49.375 29.125 C48.59125 29.08375 47.8075 29.0425 47 29 C47.185625 29.61875 47.37125 30.2375 47.5625 30.875 C48 33 48 33 47 35 C44.35139573 35.59355614 41.70802678 35.74209269 39 36 C39 35.01 39 34.02 39 33 C38.34 33 37.68 33 37 33 C37 31.35 37 29.7 37 28 C35.70359622 28.59393382 34.41301161 29.20057989 33.125 29.8125 C32.40570313 30.14894531 31.68640625 30.48539063 30.9453125 30.83203125 C28.69457194 31.99467097 28.69457194 31.99467097 27 35 C20.32335533 36.04771963 12.80989654 35.70287398 7 32 C3.41260925 29.08960711 0.56060556 26.16132835 -0.62109375 21.60546875 C-0.88158344 19.06068487 -0.94993989 16.55691614 -1 14 C-1.31682737 11.40574298 -1.66161296 8.81650169 -2.01171875 6.2265625 C-1.99811007 3.64091394 -1.31050345 2.19923568 0 0 Z " fill="#3D8ED6" transform="translate(6,23)"/>
<path d="M0 0 C1.98 0 3.96 0 6 0 C6.33 2.31 6.66 4.62 7 7 C7.43570312 6.4946875 7.87140625 5.989375 8.3203125 5.46875 C13.24528302 0.09605489 13.24528302 0.09605489 17.4375 -0.4375 C18.283125 -0.293125 19.12875 -0.14875 20 0 C19.34 1.65 18.68 3.3 18 5 C19.98 5 21.96 5 24 5 C24 5.33 24 5.66 24 6 C22.02 6 20.04 6 18 6 C18.433125 6.65484375 18.86625 7.3096875 19.3125 7.984375 C23.72271729 15.21223112 24.79180342 20.59808596 24 29 C25.98 29 27.96 29 30 29 C30 29.66 30 30.32 30 31 C24.20059658 34.99514458 19.06007604 36.25395957 12 36 C6.2610272 34.90270063 2.79458922 32.48753098 -1 28 C-1.47583008 24.86206055 -1.47583008 24.86206055 -1.26953125 21.38671875 C-1.20830078 20.13955078 -1.14707031 18.89238281 -1.08398438 17.60742188 C-0.99439453 16.31384766 -0.90480469 15.02027344 -0.8125 13.6875 C-0.74224609 12.37458984 -0.67199219 11.06167969 -0.59960938 9.70898438 C-0.42296966 6.4705896 -0.2222979 3.23552853 0 0 Z " fill="#3788DD" transform="translate(12,18)"/>
<path d="M0 0 C0.66 0 1.32 0 2 0 C2.50881052 3.52114892 3.00551105 7.04232858 3.46484375 10.5703125 C3.62082031 11.74335937 3.77679687 12.91640625 3.9375 14.125 C4.09089844 15.30320312 4.24429687 16.48140625 4.40234375 17.6953125 C5.58389368 24.22858858 7.53174297 27.10912481 13 31 C16.21265916 32.32350658 16.21265916 32.32350658 19 33 C18.01 33.495 18.01 33.495 17 34 C17 34.66 17 35.32 17 36 C19.77045173 36.27554763 22.53813416 36.52123257 25.3125 36.75 C26.09818359 36.83121094 26.88386719 36.91242187 27.69335938 36.99609375 C29.86291526 37.1622725 31.8408592 37.27712123 34 37 C36.10613061 35.18531571 36.10613061 35.18531571 37 33 C38.32 33.33 39.64 33.66 41 34 C42.125 37.75 42.125 37.75 41 40 C26.81 40 12.62 40 -2 40 C-2.04125 34.51375 -2.0825 29.0275 -2.125 23.375 C-2.14320801 21.65458496 -2.16141602 19.93416992 -2.18017578 18.16162109 C-2.18602267 16.78222973 -2.19111776 15.40283488 -2.1953125 14.0234375 C-2.20554443 13.32001221 -2.21577637 12.61658691 -2.22631836 11.8918457 C-2.22784263 7.54308854 -1.59831176 4.04278857 0 0 Z " fill="#469CBD" transform="translate(2,24)"/>
<path d="M0 0 C0.66 0 1.32 0 2 0 C2 2.31 2 4.62 2 7 C2.66 7 3.32 7 4 7 C5.29243536 11.1196377 6.26252625 14.66831683 6 19 C5.34 19 4.68 19 4 19 C3.77213542 17.01432292 3.54427083 15.02864583 3.31640625 13.04296875 C3.02829265 10.80603607 3.02829265 10.80603607 2 8 C-0.97 7.67 -3.94 7.34 -7 7 C-7.33 8.32 -7.66 9.64 -8 11 C-8.37511719 10.51789062 -8.75023437 10.03578125 -9.13671875 9.5390625 C-13.16337437 4.43842967 -13.16337437 4.43842967 -19 2 C-26.7090098 1.38925098 -33.70010337 2.56670112 -41 5 C-41 5.66 -41 6.32 -41 7 C-41.66 7 -42.32 7 -43 7 C-43 6.34 -43 5.68 -43 5 C-43.66 4.67 -44.32 4.34 -45 4 C-30.8428453 -9.27233253 -16.37760278 -9.92581987 0 0 Z " fill="#3F93C9" transform="translate(58,9)"/>
<path d="M0 0 C1.98 0 3.96 0 6 0 C6.33 2.31 6.66 4.62 7 7 C7.43570312 6.4946875 7.87140625 5.989375 8.3203125 5.46875 C13.24528302 0.09605489 13.24528302 0.09605489 17.4375 -0.4375 C18.283125 -0.293125 19.12875 -0.14875 20 0 C18.33248852 3.94139078 15.77289351 6.7892812 13 10 C14.35176901 14.05530702 16.37272553 17.02527366 18.9765625 20.3515625 C20 22 20 22 20 25 C17.375 25.5625 17.375 25.5625 14 25 C12.11620887 22.77842563 10.67458161 20.47802857 9.19921875 17.96875 C8.80347656 17.3190625 8.40773438 16.669375 8 16 C7.67 16 7.34 16 7 16 C6.855625 17.299375 6.71125 18.59875 6.5625 19.9375 C6.125 23.875 6.125 23.875 5 25 C3.35 25 1.7 25 0 25 C0 16.75 0 8.5 0 0 Z " fill="#C0D9F1" transform="translate(12,18)"/>
<path d="M0 0 C0.33 0 0.66 0 1 0 C1.02578125 0.90621094 1.0515625 1.81242187 1.078125 2.74609375 C1.4549434 10.8391254 1.85717837 18.26201245 7.38671875 24.5859375 C12.26336063 29.01459391 16.88806573 30.23263968 23.3125 30 C31.06664628 29.12316874 36.90237046 24.76253774 42 19 C40.61613025 24.22795237 37.24038711 26.94942615 33 30 C32.30648437 30.32613281 31.61296875 30.65226562 30.8984375 30.98828125 C28.66855933 31.98430135 28.66855933 31.98430135 27 35 C20.32335533 36.04771963 12.80989654 35.70287398 7 32 C3.41260925 29.08960711 0.56060556 26.16132835 -0.62109375 21.60546875 C-0.88158344 19.06068487 -0.94993989 16.55691614 -1 14 C-1.31682737 11.40574298 -1.66161296 8.81650169 -2.01171875 6.2265625 C-1.99811007 3.64091394 -1.31050345 2.19923568 0 0 Z " fill="#84E25B" transform="translate(6,23)"/>
<path d="M0 0 C3.125 -0.1875 3.125 -0.1875 6 0 C5.39675942 3.11902801 4.38286953 5.02828897 2.5 7.5625 C-0.69961943 12.44030599 -0.88445195 17.28562355 -1 23 C-2.98 23 -4.96 23 -7 23 C-7.01417969 22.31035156 -7.02835938 21.62070312 -7.04296875 20.91015625 C-7.36687362 14.52835482 -8.49551015 10.17558892 -11.94140625 4.77734375 C-13 3 -13 3 -13 1 C-11.02 1 -9.04 1 -7 1 C-6.34 2.65 -5.68 4.3 -5 6 C-2.9754262 4.06745228 -1.57894208 2.36841312 0 0 Z " fill="#BDD7F1" transform="translate(43,23)"/>
<path d="M0 0 C0.66 0 1.32 0 2 0 C2 2.31 2 4.62 2 7 C2.66 7 3.32 7 4 7 C5.29243536 11.1196377 6.26252625 14.66831683 6 19 C5.34 19 4.68 19 4 19 C3.77213542 17.01432292 3.54427083 15.02864583 3.31640625 13.04296875 C3.02829265 10.80603607 3.02829265 10.80603607 2 8 C-0.64 7.67 -3.28 7.34 -6 7 C-6 4.69 -6 2.38 -6 0 C-16.6928536 -4.71743541 -28.22395469 -4.00525578 -39 0 C-28.88977472 -12.74767535 -11.47758446 -6.95611179 0 0 Z " fill="#79D56D" transform="translate(58,9)"/>
<path d="M0 0 C1.27276283 1.90914424 2.5069865 3.84497749 3.6875 5.8125 C8.21180648 12.04870622 13.43545244 16.19955706 21 18 C24.32826562 18.48566966 27.64303828 18.80050842 31 19 C31 19.33 31 19.66 31 20 C20.77 20 10.54 20 0 20 C0 13.4 0 6.8 0 0 Z " fill="#3286DB" transform="translate(0,44)"/>
<path d="M0 0 C0.99 0 1.98 0 3 0 C3 2.97 3 5.94 3 9 C4.29243468 7.8758824 5.58392075 6.75067408 6.875 5.625 C7.59429688 4.99851562 8.31359375 4.37203125 9.0546875 3.7265625 C10.4076598 2.52573166 11.7208345 1.2791655 13 0 C13.99 0.33 14.98 0.66 16 1 C14.02 3.31 12.04 5.62 10 8 C11.55701931 12.67105792 14.08447373 16.08705685 17 20 C16.01 20.33 15.02 20.66 14 21 C12.99421411 19.71283353 11.99553202 18.42011342 11 17.125 C10.443125 16.40570313 9.88625 15.68640625 9.3125 14.9453125 C8 13 8 13 8 11 C5.91738855 12.03712176 5.91738855 12.03712176 4 14 C3.18685089 17.60465748 3.18685089 17.60465748 3 21 C2.01 21 1.02 21 0 21 C0 14.07 0 7.14 0 0 Z " fill="#418EDF" transform="translate(13,20)"/>
<path d="M0 0 C0 1.65 0 3.3 0 5 C0.66 5 1.32 5 2 5 C2 5.99 2 6.98 2 8 C-0.97 7.505 -0.97 7.505 -4 7 C-4.33902344 7.66386719 -4.67804687 8.32773437 -5.02734375 9.01171875 C-7 11 -7 11 -10.50390625 11.20703125 C-11.85867864 11.09689794 -13.21179154 10.96456652 -14.5625 10.8125 C-15.24763672 10.75513672 -15.93277344 10.69777344 -16.63867188 10.63867188 C-21.63456633 10.18271684 -21.63456633 10.18271684 -24 9 C-24 8.34 -24 7.68 -24 7 C-23.03578125 6.97421875 -22.0715625 6.9484375 -21.078125 6.921875 C-19.81484375 6.86515625 -18.5515625 6.8084375 -17.25 6.75 C-15.99703125 6.70359375 -14.7440625 6.6571875 -13.453125 6.609375 C-9.53914154 5.91867204 -8.47752468 4.99607636 -6 2 C-3.7859478 0.69761635 -2.56707742 0 0 0 Z " fill="#388CD4" transform="translate(43,51)"/>
<path d="M0 0 C0.495 0.99 0.495 0.99 1 2 C-2.9549313 6.92611266 -6.12077546 10.40220311 -12 13 C-12.99 14.485 -12.99 14.485 -14 16 C-16.75 16.328125 -16.75 16.328125 -20 16.25 C-21.0725 16.23453125 -22.145 16.2190625 -23.25 16.203125 C-26 16 -26 16 -28 15 C-28 14.01 -28 13.02 -28 12 C-29.32 11.34 -30.64 10.68 -32 10 C-29 9 -29 9 -26.5 10 C-20.638848 11.67461486 -14.92632038 11.42586825 -9.39453125 8.73046875 C-5.50027931 6.22112207 -2.65436185 3.82394004 0 0 Z " fill="#84E15B" transform="translate(47,42)"/>
<path d="M0 0 C1.12921875 -0.00515625 2.2584375 -0.0103125 3.421875 -0.015625 C6.25 0.25 6.25 0.25 8.25 2.25 C9.054375 2.86875 9.85875 3.4875 10.6875 4.125 C13.02059791 6.05976412 14.73199375 7.6356559 16.25 10.25 C15.92 11.24 15.59 12.23 15.25 13.25 C14.87488281 12.76789062 14.49976563 12.28578125 14.11328125 11.7890625 C10.08662563 6.68842967 10.08662563 6.68842967 4.25 4.25 C-1.68916719 3.77946739 -7.08455579 4.30839571 -12.83984375 5.8125 C-14.75 6.25 -14.75 6.25 -17.75 6.25 C-12.20249061 1.35513878 -7.34726806 -0.03385838 0 0 Z " fill="#74CF76" transform="translate(34.75,6.75)"/>
<path d="M0 0 C1.32 0.33 2.64 0.66 4 1 C5.125 4.75 5.125 4.75 4 7 C-6.14708924 7.32909479 -16.56970311 7.13335297 -26 3 C-26 2.34 -26 1.68 -26 1 C-24.989375 1.309375 -23.97875 1.61875 -22.9375 1.9375 C-18.72968416 2.97431793 -14.4970858 3.49018781 -10.1875 3.875 C-8.90230469 3.99617188 -7.61710937 4.11734375 -6.29296875 4.2421875 C-2.92158765 4.35927466 -2.92158765 4.35927466 -1.05078125 2.0078125 C-0.70402344 1.34523437 -0.35726562 0.68265625 0 0 Z " fill="#58ACAC" transform="translate(39,57)"/>
<path d="M0 0 C1.875 0.125 1.875 0.125 4 1 C5.25 4.0625 5.25 4.0625 6 7 C7.73100679 5.35142211 9.16812576 3.76462394 10.5625 1.8125 C11.2740625 0.9153125 11.2740625 0.9153125 12 0 C12.66 0 13.32 0 14 0 C12.35610465 5.56395349 12.35610465 5.56395349 10.46875 7.875 C8.69549137 10.44056567 8.51564747 12.16215852 8.3125 15.25 C8.24675781 16.14203125 8.18101563 17.0340625 8.11328125 17.953125 C8.07589844 18.62859375 8.03851563 19.3040625 8 20 C7.01 20 6.02 20 5 20 C4.96132813 18.93072266 4.96132813 18.93072266 4.921875 17.83984375 C4.53909434 11.37607037 3.55624637 7.39172837 0 2 C0 1.34 0 0.68 0 0 Z " fill="#438FDF" transform="translate(32,25)"/>
<path d="M0 0 C0 0.66 0 1.32 0 2 C0.66 2 1.32 2 2 2 C3.125 6.75 3.125 6.75 2 9 C-0.64860427 9.59355614 -3.29197322 9.74209269 -6 10 C-6.33 7.36 -6.66 4.72 -7 2 C-2.25 0 -2.25 0 0 0 Z " fill="#80DD61" transform="translate(51,49)"/>
<path d="M0 0 C0.99 0.66 1.98 1.32 3 2 C3 2.66 3 3.32 3 4 C1.81664063 3.96519531 0.63328125 3.93039062 -0.5859375 3.89453125 C-9.17303883 3.72021073 -16.9333519 3.59498271 -25 7 C-19.05236471 -0.49919232 -8.8978566 -1.02873117 0 0 Z " fill="#80DC63" transform="translate(44,2)"/>
<path d="M0 0 C2.61385638 0.44808967 4.88271449 0.947697 7.3125 2.03125 C10.328538 3.11842649 12.61958134 3.2019378 15.8125 3.125 C16.78832031 3.10695312 17.76414062 3.08890625 18.76953125 3.0703125 C19.50558594 3.04710937 20.24164063 3.02390625 21 3 C21.33 3.66 21.66 4.32 22 5 C16.15185552 7.16127079 11.10660806 7.43389976 5 6 C2.68038118 4.86545377 1.01742045 3.64579036 -1 2 C-0.67 1.34 -0.34 0.68 0 0 Z " fill="#52A8AB" transform="translate(15,47)"/>
<path d="M0 0 C0.66 0 1.32 0 2 0 C3 7 4 14 5 21 C4.34 21 3.68 21 3 21 C2.34 18.69 1.68 16.38 1 14 C0.01 14 -0.98 14 -2 14 C-2.1799928 8.78020872 -1.97094808 4.92737019 0 0 Z " fill="#57ADA4" transform="translate(2,24)"/>
<path d="M0 0 C-2.53393698 2.53393698 -3.55395132 2.24669864 -7.0625 2.375 C-12.5088767 2.78347825 -17.44693498 3.84787806 -22 7 C-23.26023407 9.04394985 -23.26023407 9.04394985 -24 11 C-24.66 11 -25.32 11 -26 11 C-26 10.34 -26 9.68 -26 9 C-26.66 8.67 -27.32 8.34 -28 8 C-20.82571324 -0.05415212 -10.17667616 -0.64957507 0 0 Z " fill="#4398C3" transform="translate(41,5)"/>
<path d="M0 0 C0.99 0.495 0.99 0.495 2 1 C1.67 7.93 1.34 14.86 1 22 C1.99 22 2.98 22 4 22 C3.938125 20.906875 3.87625 19.81375 3.8125 18.6875 C4 15 4 15 5.375 13.0625 C7 12 7 12 9 12 C9 12.66 9 13.32 9 14 C8.01 14.495 8.01 14.495 7 15 C6.5720382 16.86309092 6.5720382 16.86309092 6.4375 19 C6.09589041 22.90410959 6.09589041 22.90410959 5 24 C3.35 24 1.7 24 0 24 C0 16.08 0 8.16 0 0 Z " fill="#C2DAF2" transform="translate(12,19)"/>
<path d="M0 0 C1.65 0.33 3.3 0.66 5 1 C5.33 2.98 5.66 4.96 6 7 C4.3125 8.1875 4.3125 8.1875 2 9 C-0.75 7.625 -0.75 7.625 -3 6 C-2.67 4.68 -2.34 3.36 -2 2 C-1.34 2 -0.68 2 0 2 C0 1.34 0 0.68 0 0 Z " fill="#7FDB67" transform="translate(52,23)"/>
<path d="M0 0 C1.69382812 0.02126953 1.69382812 0.02126953 3.421875 0.04296875 C5.10023437 0.05263672 5.10023437 0.05263672 6.8125 0.0625 C10.00791135 0.22227057 13.03125955 0.63565522 16.171875 1.23046875 C16.171875 1.56046875 16.171875 1.89046875 16.171875 2.23046875 C14.86863281 2.41222656 14.86863281 2.41222656 13.5390625 2.59765625 C12.38664062 2.76523437 11.23421875 2.9328125 10.046875 3.10546875 C8.90992188 3.26789063 7.77296875 3.4303125 6.6015625 3.59765625 C3.31108585 4.20478292 0.31408397 5.09392508 -2.828125 6.23046875 C-2.828125 5.57046875 -2.828125 4.91046875 -2.828125 4.23046875 C-3.488125 3.57046875 -4.148125 2.91046875 -4.828125 2.23046875 C-2.828125 0.23046875 -2.828125 0.23046875 0 0 Z " fill="#3B8FCE" transform="translate(24.828125,-0.23046875)"/>
<path d="M0 0 C0.66 0.33 1.32 0.66 2 1 C-0.76395777 3.84771406 -3.55476806 6.48384389 -6.625 9 C-9.45222535 11.37757949 -11.32885658 13.65771317 -13 17 C-13.33 16.34 -13.66 15.68 -14 15 C-10.20243579 8.5268792 -6.31423592 4.08662477 0 0 Z " fill="#61B994" transform="translate(18,3)"/>
<path d="M0 0 C0.33 0 0.66 0 1 0 C1.06058594 0.95261719 1.12117187 1.90523437 1.18359375 2.88671875 C1.26738281 4.14097656 1.35117188 5.39523438 1.4375 6.6875 C1.51871094 7.92886719 1.59992187 9.17023437 1.68359375 10.44921875 C1.94491317 13.38180337 2.34798379 16.13441617 3 19 C2.01 19 1.02 19 0 19 C-1.37229982 12.72824959 -2.50919327 7.31117186 -1 1 C-0.67 0.67 -0.34 0.34 0 0 Z " fill="#7EDB66" transform="translate(6,23)"/>
<path d="M0 0 C0 0.33 0 0.66 0 1 C-3.63 1 -7.26 1 -11 1 C-11 1.66 -11 2.32 -11 3 C-12.43657245 3.33730842 -13.87430093 3.66969591 -15.3125 4 C-16.51326172 4.2784375 -16.51326172 4.2784375 -17.73828125 4.5625 C-20 5 -20 5 -23 5 C-15.52359874 -1.59682464 -9.46929393 -1.13386367 0 0 Z " fill="#67C08A" transform="translate(40,8)"/>
<path d="M0 0 C0.99 0.33 1.98 0.66 3 1 C7.08594833 2.1865126 10.76342394 2.14865179 15 2 C15 2.99 15 3.98 15 5 C3.47835991 5.55353075 3.47835991 5.55353075 -2 2 C-1.34 1.34 -0.68 0.68 0 0 Z " fill="#6EC87F" transform="translate(17,51)"/>
<path d="M0 0 C2.125 0.375 2.125 0.375 4 1 C4.33 2.32 4.66 3.64 5 5 C3.02 5.33 1.04 5.66 -1 6 C-1.625 4.125 -1.625 4.125 -2 2 C-1.34 1.34 -0.68 0.68 0 0 Z " fill="#B6D3EF" transform="translate(39,57)"/>
<path d="M0 0 C0 1.65 0 3.3 0 5 C-0.99 5.33 -1.98 5.66 -3 6 C-4.5 4.6875 -4.5 4.6875 -6 3 C-6 2.01 -6 1.02 -6 0 C-3.50907189 -1.24546405 -2.58919267 -0.7767578 0 0 Z " fill="#85D28F" transform="translate(62,33)"/>
<path d="M0 0 C1.98 0 3.96 0 6 0 C6.33 3.3 6.66 6.6 7 10 C6.01 10.33 5.02 10.66 4 11 C4 8.03 4 5.06 4 2 C2.68 1.34 1.36 0.68 0 0 Z " fill="#AFCEEF" transform="translate(12,18)"/>
<path d="M0 0 C2.0625 0.4375 2.0625 0.4375 4 1 C4.33 2.32 4.66 3.64 5 5 C3.35 5.33 1.7 5.66 0 6 C-0.38218767 4.34385343 -0.71395102 2.67542976 -1 1 C-0.67 0.67 -0.34 0.34 0 0 Z " fill="#B9D5EF" transform="translate(54,39)"/>
<path d="M0 0 C0.33 0 0.66 0 1 0 C1.66 4.62 2.32 9.24 3 14 C2.34 14 1.68 14 1 14 C-0.44209192 9.49346274 -1.34223148 5.79124078 -1 1 C-0.67 0.67 -0.34 0.34 0 0 Z " fill="#67C08C" transform="translate(4,31)"/>
<path d="M0 0 C1.9375 0.3125 1.9375 0.3125 4 1 C4.33 1.99 4.66 2.98 5 4 C4.34 4.66 3.68 5.32 3 6 C0.875 5.625 0.875 5.625 -1 5 C-0.67 3.35 -0.34 1.7 0 0 Z " fill="#C1D9F0" transform="translate(55,46)"/>
<path d="M0 0 C3 1 3 1 4.875 3.9375 C7.12409706 7.17884577 8.28485832 7.9680162 12 9 C12 9.33 12 9.66 12 10 C9.375 10.5625 9.375 10.5625 6 10 C0 3.18918919 0 3.18918919 0 0 Z " fill="#B2D0EF" transform="translate(20,33)"/>
<path d="M0 0 C0.33 0.66 0.66 1.32 1 2 C-0.09655288 3.31886772 -1.20253423 4.62990057 -2.3125 5.9375 C-2.92738281 6.66839844 -3.54226562 7.39929687 -4.17578125 8.15234375 C-6 10 -6 10 -9 11 C-9.33 10.34 -9.66 9.68 -10 9 C-9.44570313 8.60167969 -8.89140625 8.20335937 -8.3203125 7.79296875 C-7.59585938 7.26316406 -6.87140625 6.73335937 -6.125 6.1875 C-5.40570313 5.66542969 -4.68640625 5.14335938 -3.9453125 4.60546875 C-1.76971345 2.96727223 -1.76971345 2.96727223 0 0 Z " fill="#75D075" transform="translate(47,42)"/>
<path d="M0 0 C2.475 0.495 2.475 0.495 5 1 C4.67 2.32 4.34 3.64 4 5 C2.68 4.67 1.36 4.34 0 4 C0 2.68 0 1.36 0 0 Z " fill="#97C4E1" transform="translate(46,52)"/>
<path d="M0 0 C0.66 0 1.32 0 2 0 C2 0.66 2 1.32 2 2 C2.66 2 3.32 2 4 2 C4.625 4.375 4.625 4.375 5 7 C4.34 7.66 3.68 8.32 3 9 C2.731875 8.21625 2.46375 7.4325 2.1875 6.625 C1.15185568 3.71885077 1.15185568 3.71885077 -2 2 C-1.34 1.34 -0.68 0.68 0 0 Z " fill="#74CF76" transform="translate(49,49)"/>
<path d="M0 0 C0.66 0.66 1.32 1.32 2 2 C1.625 4.125 1.625 4.125 1 6 C-0.65 5.67 -2.3 5.34 -4 5 C-4 4.01 -4 3.02 -4 2 C-2.68 2 -1.36 2 0 2 C0 1.34 0 0.68 0 0 Z " fill="#86CDA1" transform="translate(56,24)"/>
<path d="M0 0 C3.26460973 1.80412643 4.88929795 2.83394693 7 6 C6.67 6.99 6.34 7.98 6 9 C4.99406757 7.8803014 3.9954151 6.7540588 3 5.625 C2.443125 4.99851562 1.88625 4.37203125 1.3125 3.7265625 C0 2 0 2 0 0 Z " fill="#67C189" transform="translate(44,11)"/>
<path d="M0 0 C0.99 0.33 1.98 0.66 3 1 C2.01 1.495 2.01 1.495 1 2 C0.34444881 4.52733235 0.34444881 4.52733235 0 7 C-0.66 7 -1.32 7 -2 7 C-2 6.34 -2 5.68 -2 5 C-2.66 4.67 -3.32 4.34 -4 4 C-2.68 2.68 -1.36 1.36 0 0 Z " fill="#4EA4B2" transform="translate(17,9)"/>
<path d="M0 0 C0.66 0.66 1.32 1.32 2 2 C0.7260411 4.03833424 -0.61061923 6.03852126 -2 8 C-2.66 8 -3.32 8 -4 8 C-4.33 7.01 -4.66 6.02 -5 5 C-4.01 4.67 -3.02 4.34 -2 4 C-0.79117904 1.99983534 -0.79117904 1.99983534 0 0 Z " fill="#BBD6F1" transform="translate(42,24)"/>
</svg>
